# xmcd CD database file
#
# Track frame offsets:
#	183
#	21628
#	43393
#	58630
#	84693
#	110683
#	133245
#	146298
#	163615
#	191755
#
# Disc length: 2910 seconds
#
# Revision: 0
# Processed by: cddbd v1.4PL0 Copyright (c) Steve Scherf et al.
# Submitted via: CDex 1.51
#
DISCID=980b5c0a
DTITLE=Jim Chappell - Tender Ritual
DYEAR=1986
DGENRE=New Age
TTITLE0=Blue Racer
TTITLE1=Ode to an Ancient Silhouette
TTITLE2=Free Again
TTITLE3=Sea Feeling
TTITLE4=Hangin' Out
TTITLE5=Tender Ritual
TTITLE6=Magic Sleigh Ride
TTITLE7=Little Dream
TTITLE8=Otter Chase
TTITLE9=Waltz for a Friend
EXTD=YEAR: 1986
EXTT0=
EXTT1=
EXTT2=
EXTT3=
EXTT4=
EXTT5=
EXTT6=
EXTT7=
EXTT8=
EXTT9=
PLAYORDER=
